# xmcd CD database file
#
# Track frame offsets:
#	150
#	14148
#	27846
#	39594
#	58017
#	79740
#	92538
#	104511
#	121059
#	134832
#	147555
#	164703
#	183426
#
# Disc length: 2630 seconds
#
# Revision: 0
# Processed by: cddbd v1.5.2PL0 Copyright (c) Steve Scherf et al.
# Submitted via: CDex 1.70beta2
#
DISCID=bc0a440d
DTITLE=Janet Griffin and Paul Harrison - Fairy Tale Gone Wrong
DYEAR=2008
DGENRE=Jazz
TTITLE0=Fairy Tale Gone Wrong
TTITLE1=A Thousand Swans
TTITLE2=Carolina
TTITLE3=Float
TTITLE4=Teach Me with a Whisper
TTITLE5=Conceivable
TTITLE6=Sue's Song
TTITLE7=Amazing Grace
TTITLE8=Into the Msytic
TTITLE9=Will You Be My Lucy Kaplansky
TTITLE10=Winter
TTITLE11=Full Moon
TTITLE12=Christmas in My World
EXTD=YEAR: 2008
EXTT0=
EXTT1=
EXTT2=
EXTT3=
EXTT4=
EXTT5=
EXTT6=
EXTT7=
EXTT8=
EXTT9=
EXTT10=
EXTT11=
EXTT12=
PLAYORDER=
